<svg viewBox="0 0 276 107" fill="none" xmlns="http://www.w3.org/2000/svg">
  <circle cx="204.999" cy="25" r="25" fill="#577590"/>
  <circle cx="67.9986" cy="25" r="25" fill="#577590"/>
  <path d="M135 105c-21.5 0-29.8-26-31.7-41.7-.1-1 1.2-1.6 1.9-.8A43.7 43.7 0 0 0 135 76.4c13.3 0 24.3-8.2 29.8-14 .7-.7 2-.1 1.9.9-2 15.6-10.2 41.7-31.7 41.7Z" fill="#577590"/>
  <mask id="a" style="mask-type:alpha" maskUnits="userSpaceOnUse" x="103" y="62" width="64" height="43">
    <path d="M135 105c-21.5 0-29.8-26-31.7-41.7-.1-1 1.2-1.6 1.9-.8A43.7 43.7 0 0 0 135 76.4c13.3 0 24.3-8.2 29.8-14 .7-.7 2-.1 1.9.9-2 15.6-10.2 41.7-31.7 41.7Z" fill="#577590"/>
  </mask>
  <g mask="url(#a)">
    <path d="M154.6 96.4c3.7 11.2-26 23.8-34.6 14.8-8.6-9 25.8-36 34.6-14.8Z" fill="#F94144"/>
  </g>
  <circle cx="216.476" cy="14.8636" r="4.95455" fill="white"/>
  <circle cx="77.7486" cy="14.8636" r="4.95455" fill="white"/>
  <ellipse cx="240.999" cy="89.5" rx="35" ry="17.5" fill="#F94144"/>
  <ellipse cx="35.0014" cy="87.5" rx="35" ry="17.5" fill="#F94144"/>
</svg>
